# xmcd
#
# Track frame offsets: 
#        150
#        24342
#        40252
#        58315
#        81810
#        98165
#        113525
#        129990
#        145822
#        161475
#
# Disc length: 2366 seconds
#
# Revision: 1
# Processed by: cddbd v1.5.2PL0 Copyright (c) Steve Scherf et al.
# Submitted via: ExactAudioCopy v0.95b4
#
DISCID=79093c0a
DTITLE=Corey Stevens - Getaway
DYEAR=2000
DGENRE=Blues
TTITLE0=Getaway
TTITLE1=The Price Is Right
TTITLE2=Mean And Lean
TTITLE3=This Train
TTITLE4=Money
TTITLE5=Stray Summer
TTITLE6=I Propose
TTITLE7=Mindless Rock
TTITLE8=You Can't Blame Me
TTITLE9=Baby It Hurts
EXTD=ID3G: 0
EXTT0=
EXTT1=
EXTT2=
EXTT3=
EXTT4=
EXTT5=
EXTT6=
EXTT7=
EXTT8=
EXTT9=
PLAYORDER=
